<svg xmlns="http://www.w3.org/2000/svg" xmlns:xlink="http://www.w3.org/1999/xlink" width="1060" zoomAndPan="magnify" viewBox="0 0 794.88 179.999997" height="240" preserveAspectRatio="xMidYMid meet" version="1.0"><defs><g/><clipPath id="321ff684db"><path d="M 0 55 L 79.488281 55 L 79.488281 125 L 0 125 Z M 0 55 " clip-rule="nonzero"/></clipPath><clipPath id="8ecacdd018"><path d="M 0 55 L 79.488281 55 L 79.488281 125 L 0 125 Z M 0 55 " clip-rule="nonzero"/></clipPath><clipPath id="3e8ed01605"><rect x="0" width="669" y="0" height="125"/></clipPath></defs><g clip-path="url(#321ff684db)"><path fill="#ffffff" d="M 39.757812 124.09375 C 39.191406 124.09375 38.65625 123.835938 38.300781 123.394531 C 34.097656 118.136719 27.101562 113.269531 4.570312 113.269531 C 1.964844 113.269531 0 111.164062 0 108.371094 L 0 59.980469 C 0 57.457031 2.046875 55.410156 4.558594 55.410156 C 23.90625 55.496094 35.050781 59.519531 39.757812 68.320312 C 44.460938 59.519531 55.601562 55.496094 74.933594 55.410156 C 77.464844 55.410156 79.511719 57.457031 79.511719 59.96875 L 79.511719 108.699219 C 79.511719 111.21875 77.460938 113.269531 74.941406 113.269531 C 52.414062 113.269531 45.417969 118.132812 41.210938 123.394531 C 40.859375 123.835938 40.324219 124.09375 39.757812 124.09375 Z M 4.5625 59.136719 C 4.101562 59.136719 3.726562 59.511719 3.726562 59.96875 L 3.726562 108.371094 C 3.726562 108.644531 3.789062 109.542969 4.570312 109.542969 C 22.671875 109.542969 33.117188 112.425781 39.757812 119.398438 C 46.398438 112.425781 56.84375 109.542969 74.941406 109.542969 C 75.40625 109.542969 75.785156 109.164062 75.785156 108.699219 L 75.785156 59.980469 C 75.785156 59.507812 75.410156 59.136719 74.953125 59.136719 C 54.4375 59.226562 44.136719 63.804688 41.5625 73.96875 C 41.351562 74.796875 40.609375 75.375 39.757812 75.375 C 38.902344 75.375 38.160156 74.796875 37.949219 73.96875 C 35.375 63.804688 25.078125 59.226562 4.5625 59.136719 Z M 4.5625 59.136719 " fill-opacity="1" fill-rule="evenodd"/></g><path fill="#ffffff" d="M 39.757812 124.09375 C 38.726562 124.09375 37.894531 123.261719 37.894531 122.230469 L 37.894531 85.425781 C 37.894531 84.394531 38.726562 83.5625 39.757812 83.5625 C 40.785156 83.5625 41.621094 84.394531 41.621094 85.425781 L 41.621094 122.230469 C 41.621094 123.261719 40.785156 124.09375 39.757812 124.09375 Z M 39.757812 124.09375 " fill-opacity="1" fill-rule="evenodd"/><g clip-path="url(#8ecacdd018)"><path fill="#ffffff" d="M 39.757812 124.09375 C 39.191406 124.09375 38.65625 123.835938 38.300781 123.394531 C 34.097656 118.136719 27.101562 113.269531 4.570312 113.269531 C 1.964844 113.269531 0 111.164062 0 108.371094 L 0 59.980469 C 0 57.457031 2.046875 55.410156 4.558594 55.410156 C 23.90625 55.496094 35.050781 59.519531 39.757812 68.320312 C 44.460938 59.519531 55.601562 55.496094 74.933594 55.410156 C 77.464844 55.410156 79.511719 57.457031 79.511719 59.96875 L 79.511719 108.699219 C 79.511719 111.21875 77.460938 113.269531 74.941406 113.269531 C 52.414062 113.269531 45.417969 118.132812 41.210938 123.394531 C 40.859375 123.835938 40.324219 124.09375 39.757812 124.09375 Z M 4.5625 59.136719 C 4.101562 59.136719 3.726562 59.511719 3.726562 59.96875 L 3.726562 108.371094 C 3.726562 108.644531 3.789062 109.542969 4.570312 109.542969 C 22.671875 109.542969 33.117188 112.425781 39.757812 119.398438 C 46.398438 112.425781 56.84375 109.542969 74.941406 109.542969 C 75.40625 109.542969 75.785156 109.164062 75.785156 108.699219 L 75.785156 59.980469 C 75.785156 59.507812 75.410156 59.136719 74.953125 59.136719 C 54.4375 59.226562 44.136719 63.804688 41.5625 73.96875 C 41.351562 74.796875 40.609375 75.375 39.757812 75.375 C 38.902344 75.375 38.160156 74.796875 37.949219 73.96875 C 35.375 63.804688 25.078125 59.226562 4.5625 59.136719 Z M 4.5625 59.136719 " fill-opacity="1" fill-rule="evenodd"/></g><path fill="#ffffff" d="M 39.757812 124.09375 C 38.726562 124.09375 37.894531 123.261719 37.894531 122.230469 L 37.894531 85.425781 C 37.894531 84.394531 38.726562 83.5625 39.757812 83.5625 C 40.785156 83.5625 41.621094 84.394531 41.621094 85.425781 L 41.621094 122.230469 C 41.621094 123.261719 40.785156 124.09375 39.757812 124.09375 Z M 39.757812 124.09375 " fill-opacity="1" fill-rule="evenodd"/><g transform="matrix(1, 0, 0, 1, 92, 27)"><g clip-path="url(#3e8ed01605)"><g fill="#143d45" fill-opacity="1"><g transform="translate(0.755864, 98.48437)"><g><path d="M 30.6875 -21.359375 L 23.09375 -13.875 L 23.09375 0 L 7.296875 0 L 7.296875 -75.140625 L 23.09375 -75.140625 L 23.09375 -32.609375 L 46.171875 -54.484375 L 65.015625 -54.484375 L 42.328125 -31.390625 L 67.03125 0 L 47.90625 0 Z M 30.6875 -21.359375 "/></g></g></g><g fill="#143d45" fill-opacity="1"><g transform="translate(66.572088, 98.48437)"><g><path d="M 29.265625 -55.296875 C 37.703125 -55.296875 44.179688 -53.285156 48.703125 -49.265625 C 53.234375 -45.242188 55.5 -39.1875 55.5 -31.09375 L 55.5 0 L 40.703125 0 L 40.703125 -6.78125 C 37.734375 -1.71875 32.195312 0.8125 24.09375 0.8125 C 19.914062 0.8125 16.289062 0.101562 13.21875 -1.3125 C 10.144531 -2.726562 7.796875 -4.6875 6.171875 -7.1875 C 4.554688 -9.6875 3.75 -12.523438 3.75 -15.703125 C 3.75 -20.765625 5.65625 -24.742188 9.46875 -27.640625 C 13.28125 -30.546875 19.171875 -32 27.140625 -32 L 39.703125 -32 C 39.703125 -35.445312 38.65625 -38.097656 36.5625 -39.953125 C 34.46875 -41.804688 31.328125 -42.734375 27.140625 -42.734375 C 24.234375 -42.734375 21.378906 -42.273438 18.578125 -41.359375 C 15.773438 -40.453125 13.394531 -39.222656 11.4375 -37.671875 L 5.765625 -48.703125 C 8.742188 -50.796875 12.304688 -52.414062 16.453125 -53.5625 C 20.609375 -54.71875 24.878906 -55.296875 29.265625 -55.296875 Z M 28.046875 -9.828125 C 30.742188 -9.828125 33.140625 -10.445312 35.234375 -11.6875 C 37.328125 -12.9375 38.816406 -14.78125 39.703125 -17.21875 L 39.703125 -22.78125 L 28.859375 -22.78125 C 22.378906 -22.78125 19.140625 -20.65625 19.140625 -16.40625 C 19.140625 -14.375 19.929688 -12.769531 21.515625 -11.59375 C 23.109375 -10.414062 25.285156 -9.828125 28.046875 -9.828125 Z M 28.046875 -9.828125 "/></g></g></g><g fill="#143d45" fill-opacity="1"><g transform="translate(129.654466, 98.48437)"><g><path d="M 62.78125 -75.140625 L 62.78125 0 L 47.703125 0 L 47.703125 -6.28125 C 43.785156 -1.550781 38.113281 0.8125 30.6875 0.8125 C 25.550781 0.8125 20.90625 -0.332031 16.75 -2.625 C 12.601562 -4.925781 9.347656 -8.203125 6.984375 -12.453125 C 4.617188 -16.703125 3.4375 -21.628906 3.4375 -27.234375 C 3.4375 -32.835938 4.617188 -37.765625 6.984375 -42.015625 C 9.347656 -46.273438 12.601562 -49.550781 16.75 -51.84375 C 20.90625 -54.144531 25.550781 -55.296875 30.6875 -55.296875 C 37.632812 -55.296875 43.066406 -53.097656 46.984375 -48.703125 L 46.984375 -75.140625 Z M 33.421875 -12.15625 C 37.398438 -12.15625 40.707031 -13.519531 43.34375 -16.25 C 45.976562 -18.988281 47.296875 -22.648438 47.296875 -27.234375 C 47.296875 -31.828125 45.976562 -35.488281 43.34375 -38.21875 C 40.707031 -40.957031 37.398438 -42.328125 33.421875 -42.328125 C 29.367188 -42.328125 26.023438 -40.957031 23.390625 -38.21875 C 20.753906 -35.488281 19.4375 -31.828125 19.4375 -27.234375 C 19.4375 -22.648438 20.753906 -18.988281 23.390625 -16.25 C 26.023438 -13.519531 29.367188 -12.15625 33.421875 -12.15625 Z M 33.421875 -12.15625 "/></g></g></g><g fill="#143d45" fill-opacity="1"><g transform="translate(199.723467, 98.48437)"><g><path d="M 62.171875 -54.484375 L 62.171875 0 L 47.1875 0 L 47.1875 -6.484375 C 45.09375 -4.117188 42.59375 -2.3125 39.6875 -1.0625 C 36.789062 0.183594 33.65625 0.8125 30.28125 0.8125 C 23.125 0.8125 17.453125 -1.242188 13.265625 -5.359375 C 9.078125 -9.484375 6.984375 -15.597656 6.984375 -23.703125 L 6.984375 -54.484375 L 22.78125 -54.484375 L 22.78125 -26.03125 C 22.78125 -17.25 26.460938 -12.859375 33.828125 -12.859375 C 37.609375 -12.859375 40.644531 -14.085938 42.9375 -16.546875 C 45.226562 -19.015625 46.375 -22.679688 46.375 -27.546875 L 46.375 -54.484375 Z M 62.171875 -54.484375 "/></g></g></g><g fill="#143d45" fill-opacity="1"><g transform="translate(269.286187, 98.48437)"><g><path d="M 40.40625 -55.296875 C 47.15625 -55.296875 52.601562 -53.269531 56.75 -49.21875 C 60.90625 -45.164062 62.984375 -39.15625 62.984375 -31.1875 L 62.984375 0 L 47.1875 0 L 47.1875 -28.765625 C 47.1875 -33.078125 46.238281 -36.296875 44.34375 -38.421875 C 42.457031 -40.554688 39.726562 -41.625 36.15625 -41.625 C 32.164062 -41.625 28.988281 -40.390625 26.625 -37.921875 C 24.269531 -35.460938 23.09375 -31.800781 23.09375 -26.9375 L 23.09375 0 L 7.296875 0 L 7.296875 -54.484375 L 22.375 -54.484375 L 22.375 -48.09375 C 24.46875 -50.394531 27.066406 -52.171875 30.171875 -53.421875 C 33.273438 -54.671875 36.6875 -55.296875 40.40625 -55.296875 Z M 40.40625 -55.296875 "/></g></g></g><g fill="#143d45" fill-opacity="1"><g transform="translate(339.861485, 98.48437)"><g><path d="M 33.21875 0.8125 C 27.476562 0.8125 22.328125 -0.382812 17.765625 -2.78125 C 13.210938 -5.175781 9.648438 -8.5 7.078125 -12.75 C 4.515625 -17.007812 3.234375 -21.835938 3.234375 -27.234375 C 3.234375 -32.640625 4.515625 -37.46875 7.078125 -41.71875 C 9.648438 -45.96875 13.210938 -49.289062 17.765625 -51.6875 C 22.328125 -54.09375 27.476562 -55.296875 33.21875 -55.296875 C 38.957031 -55.296875 44.085938 -54.09375 48.609375 -51.6875 C 53.128906 -49.289062 56.671875 -45.96875 59.234375 -41.71875 C 61.804688 -37.46875 63.09375 -32.640625 63.09375 -27.234375 C 63.09375 -21.835938 61.804688 -17.007812 59.234375 -12.75 C 56.671875 -8.5 53.128906 -5.175781 48.609375 -2.78125 C 44.085938 -0.382812 38.957031 0.8125 33.21875 0.8125 Z M 33.21875 -12.15625 C 37.269531 -12.15625 40.59375 -13.519531 43.1875 -16.25 C 45.789062 -18.988281 47.09375 -22.648438 47.09375 -27.234375 C 47.09375 -31.828125 45.789062 -35.488281 43.1875 -38.21875 C 40.59375 -40.957031 37.269531 -42.328125 33.21875 -42.328125 C 29.164062 -42.328125 25.820312 -40.957031 23.1875 -38.21875 C 20.550781 -35.488281 19.234375 -31.828125 19.234375 -27.234375 C 19.234375 -22.648438 20.550781 -18.988281 23.1875 -16.25 C 25.820312 -13.519531 29.164062 -12.15625 33.21875 -12.15625 Z M 33.21875 -12.15625 "/></g></g></g><g fill="#143d45" fill-opacity="1"><g transform="translate(406.184034, 98.48437)"><g><path d="M 40.40625 -55.296875 C 47.15625 -55.296875 52.601562 -53.269531 56.75 -49.21875 C 60.90625 -45.164062 62.984375 -39.15625 62.984375 -31.1875 L 62.984375 0 L 47.1875 0 L 47.1875 -28.765625 C 47.1875 -33.078125 46.238281 -36.296875 44.34375 -38.421875 C 42.457031 -40.554688 39.726562 -41.625 36.15625 -41.625 C 32.164062 -41.625 28.988281 -40.390625 26.625 -37.921875 C 24.269531 -35.460938 23.09375 -31.800781 23.09375 -26.9375 L 23.09375 0 L 7.296875 0 L 7.296875 -54.484375 L 22.375 -54.484375 L 22.375 -48.09375 C 24.46875 -50.394531 27.066406 -52.171875 30.171875 -53.421875 C 33.273438 -54.671875 36.6875 -55.296875 40.40625 -55.296875 Z M 40.40625 -55.296875 "/></g></g></g><g fill="#143d45" fill-opacity="1"><g transform="translate(476.759305, 98.48437)"><g><path d="M 63.5 -54.484375 L 63.5 -9.109375 C 63.5 0.878906 60.898438 8.300781 55.703125 13.15625 C 50.503906 18.019531 42.90625 20.453125 32.90625 20.453125 C 27.644531 20.453125 22.648438 19.8125 17.921875 18.53125 C 13.191406 17.25 9.273438 15.394531 6.171875 12.96875 L 12.453125 1.625 C 14.753906 3.507812 17.660156 5.007812 21.171875 6.125 C 24.679688 7.238281 28.191406 7.796875 31.703125 7.796875 C 37.171875 7.796875 41.203125 6.5625 43.796875 4.09375 C 46.398438 1.632812 47.703125 -2.09375 47.703125 -7.09375 L 47.703125 -9.421875 C 43.578125 -4.898438 37.835938 -2.640625 30.484375 -2.640625 C 25.484375 -2.640625 20.90625 -3.734375 16.75 -5.921875 C 12.601562 -8.117188 9.3125 -11.207031 6.875 -15.1875 C 4.445312 -19.175781 3.234375 -23.769531 3.234375 -28.96875 C 3.234375 -34.164062 4.445312 -38.753906 6.875 -42.734375 C 9.3125 -46.710938 12.601562 -49.800781 16.75 -52 C 20.90625 -54.195312 25.484375 -55.296875 30.484375 -55.296875 C 38.378906 -55.296875 44.382812 -52.695312 48.5 -47.5 L 48.5 -54.484375 Z M 33.625 -15.59375 C 37.8125 -15.59375 41.238281 -16.820312 43.90625 -19.28125 C 46.570312 -21.75 47.90625 -24.976562 47.90625 -28.96875 C 47.90625 -32.945312 46.570312 -36.164062 43.90625 -38.625 C 41.238281 -41.09375 37.8125 -42.328125 33.625 -42.328125 C 29.4375 -42.328125 25.988281 -41.09375 23.28125 -38.625 C 20.582031 -36.164062 19.234375 -32.945312 19.234375 -28.96875 C 19.234375 -24.976562 20.582031 -21.75 23.28125 -19.28125 C 25.988281 -16.820312 29.4375 -15.59375 33.625 -15.59375 Z M 33.625 -15.59375 "/></g></g></g><g fill="#143d45" fill-opacity="1"><g transform="translate(547.638395, 98.48437)"><g><path d="M 13.265625 0.8125 C 10.492188 0.8125 8.160156 -0.128906 6.265625 -2.015625 C 4.378906 -3.910156 3.4375 -6.273438 3.4375 -9.109375 C 3.4375 -12.015625 4.378906 -14.359375 6.265625 -16.140625 C 8.160156 -17.929688 10.492188 -18.828125 13.265625 -18.828125 C 16.035156 -18.828125 18.363281 -17.929688 20.25 -16.140625 C 22.144531 -14.359375 23.09375 -12.015625 23.09375 -9.109375 C 23.09375 -6.273438 22.144531 -3.910156 20.25 -2.015625 C 18.363281 -0.128906 16.035156 0.8125 13.265625 0.8125 Z M 13.265625 0.8125 "/></g></g></g><g fill="#ffffff" fill-opacity="1"><g transform="translate(575.192551, 98.48437)"><g><path d="M 29.265625 -55.296875 C 37.703125 -55.296875 44.179688 -53.285156 48.703125 -49.265625 C 53.234375 -45.242188 55.5 -39.1875 55.5 -31.09375 L 55.5 0 L 40.703125 0 L 40.703125 -6.78125 C 37.734375 -1.71875 32.195312 0.8125 24.09375 0.8125 C 19.914062 0.8125 16.289062 0.101562 13.21875 -1.3125 C 10.144531 -2.726562 7.796875 -4.6875 6.171875 -7.1875 C 4.554688 -9.6875 3.75 -12.523438 3.75 -15.703125 C 3.75 -20.765625 5.65625 -24.742188 9.46875 -27.640625 C 13.28125 -30.546875 19.171875 -32 27.140625 -32 L 39.703125 -32 C 39.703125 -35.445312 38.65625 -38.097656 36.5625 -39.953125 C 34.46875 -41.804688 31.328125 -42.734375 27.140625 -42.734375 C 24.234375 -42.734375 21.378906 -42.273438 18.578125 -41.359375 C 15.773438 -40.453125 13.394531 -39.222656 11.4375 -37.671875 L 5.765625 -48.703125 C 8.742188 -50.796875 12.304688 -52.414062 16.453125 -53.5625 C 20.609375 -54.71875 24.878906 -55.296875 29.265625 -55.296875 Z M 28.046875 -9.828125 C 30.742188 -9.828125 33.140625 -10.445312 35.234375 -11.6875 C 37.328125 -12.9375 38.816406 -14.78125 39.703125 -17.21875 L 39.703125 -22.78125 L 28.859375 -22.78125 C 22.378906 -22.78125 19.140625 -20.65625 19.140625 -16.40625 C 19.140625 -14.375 19.929688 -12.769531 21.515625 -11.59375 C 23.109375 -10.414062 25.285156 -9.828125 28.046875 -9.828125 Z M 28.046875 -9.828125 "/></g></g></g><g fill="#ffffff" fill-opacity="1"><g transform="translate(637.667373, 98.48437)"><g><path d="M 7.296875 -54.484375 L 23.09375 -54.484375 L 23.09375 0 L 7.296875 0 Z M 15.1875 -62.078125 C 12.28125 -62.078125 9.914062 -62.921875 8.09375 -64.609375 C 6.269531 -66.296875 5.359375 -68.390625 5.359375 -70.890625 C 5.359375 -73.378906 6.269531 -75.46875 8.09375 -77.15625 C 9.914062 -78.851562 12.28125 -79.703125 15.1875 -79.703125 C 18.082031 -79.703125 20.441406 -78.890625 22.265625 -77.265625 C 24.085938 -75.640625 25 -73.613281 25 -71.1875 C 25 -68.550781 24.085938 -66.375 22.265625 -64.65625 C 20.441406 -62.9375 18.082031 -62.078125 15.1875 -62.078125 Z M 15.1875 -62.078125 "/></g></g></g></g></g></svg>
